REM DIRINDEX 1\2,1\3
REM DIRNAME cjc039,folder01,folder02
TITLE ""
FILE "2441-2460.mp3" MP3
  TRACK 01 AUDIO
    TITLE "0:"
    INDEX 01 00:00:00
  TRACK 02 AUDIO
    TITLE "2:cjc039_3881"
    INDEX 01 00:00:25
  TRACK 03 AUDIO
    TITLE "0:"
    INDEX 01 00:01:21
  TRACK 04 AUDIO
    TITLE "3:cjc039_3882"
    INDEX 01 00:02:02
  TRACK 05 AUDIO
    TITLE "0:"
    INDEX 01 00:04:36
  TRACK 06 AUDIO
    TITLE "2:cjc039_3883"
    INDEX 01 00:06:14
  TRACK 07 AUDIO
    TITLE "0:"
    INDEX 01 00:07:33
  TRACK 08 AUDIO
    TITLE "3:cjc039_3884"
    INDEX 01 00:08:09
  TRACK 09 AUDIO
    TITLE "0:"
    INDEX 01 00:12:24
  TRACK 10 AUDIO
    TITLE "2:cjc039_3885"
    INDEX 01 00:14:00
  TRACK 11 AUDIO
    TITLE "0:"
    INDEX 01 00:15:13
  TRACK 12 AUDIO
    TITLE "3:cjc039_3886"
    INDEX 01 00:15:64
  TRACK 13 AUDIO
    TITLE "0:"
    INDEX 01 00:19:36
  TRACK 14 AUDIO
    TITLE "2:cjc039_3887"
    INDEX 01 00:21:09
  TRACK 15 AUDIO
    TITLE "0:"
    INDEX 01 00:22:15
  TRACK 16 AUDIO
    TITLE "3:cjc039_3888"
    INDEX 01 00:22:72
  TRACK 17 AUDIO
    TITLE "0:"
    INDEX 01 00:25:56
  TRACK 18 AUDIO
    TITLE "2:cjc039_3889"
    INDEX 01 00:27:34
  TRACK 19 AUDIO
    TITLE "0:"
    INDEX 01 00:29:09
  TRACK 20 AUDIO
    TITLE "3:cjc039_3890"
    INDEX 01 00:29:62
  TRACK 21 AUDIO
    TITLE "0:"
    INDEX 01 00:34:06
  TRACK 22 AUDIO
    TITLE "2:cjc039_3891"
    INDEX 01 00:35:53
  TRACK 23 AUDIO
    TITLE "0:"
    INDEX 01 00:36:56
  TRACK 24 AUDIO
    TITLE "3:cjc039_3892"
    INDEX 01 00:37:34
  TRACK 25 AUDIO
    TITLE "0:"
    INDEX 01 00:40:13
  TRACK 26 AUDIO
    TITLE "2:cjc039_3893"
    INDEX 01 00:41:63
  TRACK 27 AUDIO
    TITLE "0:"
    INDEX 01 00:42:70
  TRACK 28 AUDIO
    TITLE "3:cjc039_3894"
    INDEX 01 00:43:50
  TRACK 29 AUDIO
    TITLE "0:"
    INDEX 01 00:46:62
  TRACK 30 AUDIO
    TITLE "2:cjc039_3895"
    INDEX 01 00:48:44
  TRACK 31 AUDIO
    TITLE "0:"
    INDEX 01 00:50:01
  TRACK 32 AUDIO
    TITLE "3:cjc039_3896"
    INDEX 01 00:50:54
  TRACK 33 AUDIO
    TITLE "0:"
    INDEX 01 00:54:15
  TRACK 34 AUDIO
    TITLE "2:cjc039_3897"
    INDEX 01 00:55:71
  TRACK 35 AUDIO
    TITLE "0:"
    INDEX 01 00:57:27
  TRACK 36 AUDIO
    TITLE "3:cjc039_3898"
    INDEX 01 00:58:01
  TRACK 37 AUDIO
    TITLE "0:"
    INDEX 01 01:01:38
  TRACK 38 AUDIO
    TITLE "2:cjc039_3899"
    INDEX 01 01:03:16
  TRACK 39 AUDIO
    TITLE "0:"
    INDEX 01 01:04:39
  TRACK 40 AUDIO
    TITLE "3:cjc039_3900"
    INDEX 01 01:05:11
  TRACK 41 AUDIO
    TITLE "0:"
    INDEX 01 01:08:54
  TRACK 42 AUDIO
    TITLE "2:cjc039_3901"
    INDEX 01 01:10:35
  TRACK 43 AUDIO
    TITLE "0:"
    INDEX 01 01:11:45
  TRACK 44 AUDIO
    TITLE "3:cjc039_3902"
    INDEX 01 01:12:17
  TRACK 45 AUDIO
    TITLE "0:"
    INDEX 01 01:15:50
  TRACK 46 AUDIO
    TITLE "2:cjc039_3903"
    INDEX 01 01:17:22
  TRACK 47 AUDIO
    TITLE "0:"
    INDEX 01 01:18:45
  TRACK 48 AUDIO
    TITLE "3:cjc039_3904"
    INDEX 01 01:19:15
  TRACK 49 AUDIO
    TITLE "0:"
    INDEX 01 01:23:24
  TRACK 50 AUDIO
    TITLE "2:cjc039_3905"
    INDEX 01 01:25:00
  TRACK 51 AUDIO
    TITLE "0:"
    INDEX 01 01:26:15
  TRACK 52 AUDIO
    TITLE "3:cjc039_3906"
    INDEX 01 01:26:68
  TRACK 53 AUDIO
    TITLE "0:"
    INDEX 01 01:29:72
  TRACK 54 AUDIO
    TITLE "2:cjc039_3907"
    INDEX 01 01:31:49
  TRACK 55 AUDIO
    TITLE "0:"
    INDEX 01 01:33:03
  TRACK 56 AUDIO
    TITLE "3:cjc039_3908"
    INDEX 01 01:33:54
  TRACK 57 AUDIO
    TITLE "0:"
    INDEX 01 01:37:13
  TRACK 58 AUDIO
    TITLE "2:cjc039_3909"
    INDEX 01 01:38:59
  TRACK 59 AUDIO
    TITLE "0:"
    INDEX 01 01:39:68
  TRACK 60 AUDIO
    TITLE "3:cjc039_3910"
    INDEX 01 01:40:40
  TRACK 61 AUDIO
    TITLE "0:"
    INDEX 01 01:42:73
  TRACK 62 AUDIO
    TITLE "2:cjc039_3911"
    INDEX 01 01:44:48
  TRACK 63 AUDIO
    TITLE "0:"
    INDEX 01 01:46:10
  TRACK 64 AUDIO
    TITLE "3:cjc039_3912"
    INDEX 01 01:46:55
  TRACK 65 AUDIO
    TITLE "0:"
    INDEX 01 01:49:69
  TRACK 66 AUDIO
    TITLE "2:cjc039_3913"
    INDEX 01 01:51:44
  TRACK 67 AUDIO
    TITLE "0:"
    INDEX 01 01:52:69
  TRACK 68 AUDIO
    TITLE "3:cjc039_3914"
    INDEX 01 01:53:43
  TRACK 69 AUDIO
    TITLE "0:"
    INDEX 01 01:56:69
  TRACK 70 AUDIO
    TITLE "2:cjc039_3915"
    INDEX 01 01:58:44
  TRACK 71 AUDIO
    TITLE "0:"
    INDEX 01 02:00:04
  TRACK 72 AUDIO
    TITLE "3:cjc039_3916"
    INDEX 01 02:00:55
  TRACK 73 AUDIO
    TITLE "0:"
    INDEX 01 02:04:57
  TRACK 74 AUDIO
    TITLE "2:cjc039_3917"
    INDEX 01 02:06:34
  TRACK 75 AUDIO
    TITLE "0:"
    INDEX 01 02:07:57
  TRACK 76 AUDIO
    TITLE "3:cjc039_3918"
    INDEX 01 02:08:29
  TRACK 77 AUDIO
    TITLE "0:"
    INDEX 01 02:11:57
  TRACK 78 AUDIO
    TITLE "2:cjc039_3919"
    INDEX 01 02:13:36
  TRACK 79 AUDIO
    TITLE "0:"
    INDEX 01 02:15:00
  TRACK 80 AUDIO
    TITLE "3:cjc039_3920"
    INDEX 01 02:15:43
  TRACK 81 AUDIO
    TITLE "0:"
    INDEX 01 02:18:19
